<?xml version="1.0" encoding="utf-8"?>
<!-- Generator: Adobe Illustrator 24.0.0, SVG Export Plug-In . SVG Version: 6.00 Build 0)  -->
<svg version="1.1" id="Capa_1" xmlns="http://www.w3.org/2000/svg" xmlns:xlink="http://www.w3.org/1999/xlink" x="0px" y="0px"
	 viewBox="0 0 200 200" style="enable-background:new 0 0 200 200;" xml:space="preserve">
<style type="text/css">
	.st0{fill:url(#SVGID_1_);}
	.st1{fill:#FFFFFF;}
</style>
<g>
	<g>
		<g>
			<linearGradient id="SVGID_1_" gradientUnits="userSpaceOnUse" x1="24.9357" y1="99.6561" x2="174.9357" y2="99.6561">
				<stop  offset="0.0357" style="stop-color:#32BA46"/>
				<stop  offset="0.39" style="stop-color:#35BC48"/>
				<stop  offset="0.621" style="stop-color:#3DC450"/>
				<stop  offset="0.8162" style="stop-color:#4CD05E"/>
				<stop  offset="0.99" style="stop-color:#61E271"/>
			</linearGradient>
			<path class="st0" d="M174.94,98.6c0-19.31-7.21-36.94-19.08-50.34c-13.83-14.49-33.34-23.51-54.95-23.51
				c-41.96,0-75.97,34.01-75.97,75.97c0,19.31,7.21,36.94,19.08,50.34c13.83,14.49,33.34,23.51,54.95,23.51
				C140.93,174.57,174.94,140.55,174.94,98.6z"/>
		</g>
	</g>
</g>
<g>
	<g>
		<path class="st1" d="M100.12,137.09c-7.11,0-14.08-1.88-20.26-5.45l-15.82,5.45l3.25-16.76c-5.1-6.99-7.79-15.2-7.79-23.86
			c0-22.4,18.22-40.61,40.62-40.61c22.4,0,40.62,18.22,40.62,40.61C140.74,118.87,122.52,137.09,100.12,137.09z M80.59,124.99
			l1.22,0.77c5.52,3.46,11.85,5.29,18.3,5.29c19.06,0,34.57-15.51,34.57-34.57c0-19.06-15.51-34.57-34.57-34.57
			c-19.06,0-34.57,15.51-34.57,34.57c0,7.76,2.54,15.11,7.34,21.25l0.85,1.09l-1.78,9.16L80.59,124.99z"/>
	</g>
	<path class="st1" d="M79.62,80.87c0,0,2.38-4.17,4.32-4.4c1.94-0.24,4.44-0.24,5.12,1.03c0.67,1.27,3.69,8.65,3.69,8.65
		s0.51,1.27-0.28,2.5c-0.79,1.23-2.58,3.02-2.58,3.02s-0.99,1.27,0,2.62c0.99,1.35,2.53,3.83,5.71,7.01
		c3.18,3.18,9.28,5.45,9.28,5.45s0.87,0.12,1.43-0.44c0.56-0.56,3.57-4.32,3.57-4.32s0.97-1.25,2.58-0.51
		c1.61,0.73,8.57,4.2,8.57,4.2s0.81,0.3,0.81,1.53c0,1.23-0.5,4.24-1.52,5.26c-1.02,1.02-3.99,4.15-8.46,4.15
		c-4.47,0-15.12-3.64-20.79-9.31c-5.67-5.68-10.71-11.43-11.9-16.66C77.99,85.39,78.15,83.02,79.62,80.87z"/>
</g>
</svg>
