<?xml version="1.0" encoding="utf-8"?>
<!-- Generator: Adobe Illustrator 24.0.0, SVG Export Plug-In . SVG Version: 6.00 Build 0)  -->
<svg version="1.1" id="Capa_1" xmlns="http://www.w3.org/2000/svg" xmlns:xlink="http://www.w3.org/1999/xlink" x="0px" y="0px"
	 viewBox="0 0 300 150" style="enable-background:new 0 0 300 150;" xml:space="preserve">
<style type="text/css">
	.st0{fill:#A70A24;}
	.st1{fill:#000033;}
	.st2{fill:#333333;}
	.st3{fill:#F2F2F2;}
</style>
<g>
	<path class="st0" d="M52.05,7.26c9.92,0,18.09,2.86,24.51,8.58c6.42,5.72,9.52,13.6,9.3,23.63l-0.17,0.51h-8.96
		c0-7.44-2.28-13.31-6.85-17.62s-10.51-6.47-17.84-6.47c-9.36,0-16.5,3.57-21.43,10.69c-4.93,7.13-7.4,15.91-7.4,26.33v3.55
		c0,9.47,2.86,17.2,8.58,23.2c5.72,6,14.02,10.33,24.89,12.98c7.61,1.92,12.99,4.07,16.15,6.47c3.16,2.39,4.73,6.3,4.73,11.71
		c-0.06,3.72-1.55,7.73-4.48,12.05c-2.93,4.31-5.86,7.42-8.79,9.34l-5.58-4.82c2.76-2.42,4.97-4.83,6.64-7.23
		c1.66-2.4,2.49-5.17,2.49-8.33c0-3.16-0.97-5.44-2.92-6.85c-1.94-1.41-5.65-2.7-11.12-3.89c-13.07-2.82-23.15-7.89-30.22-15.22
		C16.54,78.54,13,68.74,13,56.45V52.9c0-13.13,3.51-24.02,10.52-32.67C30.54,11.58,40.05,7.26,52.05,7.26z"/>
	<path class="st1" d="M90.52,49.05v-3.34h16.76v3.34l-6.12,0.49v47.07l6.12,0.49v3.31H90.52V97.1l6.12-0.49V49.54L90.52,49.05z"/>
	<path class="st1" d="M157.2,94.4c-1.3,1.6-3.57,3.14-6.8,4.6c-3.23,1.47-7.28,2.2-12.13,2.2c-7.11,0-12.9-2.57-17.36-7.7
		c-4.46-5.13-6.69-11.82-6.69-20.06v-1.16c0-8.11,2.23-14.7,6.69-19.76c4.46-5.06,10.31-7.59,17.54-7.59
		c4.11,0,7.74,0.68,10.89,2.05c3.16,1.37,5.72,3.24,7.7,5.62v9.5h-3.49l-0.79-8c-1.48-1.63-3.39-2.92-5.75-3.89
		c-2.35-0.96-5.1-1.45-8.23-1.45c-6.21,0-11.11,2.18-14.69,6.54c-3.58,4.36-5.37,9.99-5.37,16.91v1.24c0,7.11,1.76,12.89,5.28,17.32
		c3.52,4.43,8.27,6.65,14.26,6.65c3.56,0,6.6-0.46,9.13-1.39c2.53-0.93,4.31-1.92,5.33-2.97V79.78l-10.52-0.19v-3.64h14.99V94.4z"/>
	<path class="st1" d="M221.03,52.32l-0.23-0.08l-20.32,48.16h-3.12l-20.29-47.94l-0.23,0.04l0.41,23.74v20.36l6.12,0.49v3.31h-16.72
		V97.1l6.12-0.49V49.54l-6.12-0.49v-3.34h6.12h5.9l20.1,48.16h0.23l20.17-48.16h12.06v3.34l-6.12,0.49v47.07l6.12,0.49v3.31h-16.72
		V97.1l6.12-0.49V76.25L221.03,52.32z"/>
	<path class="st1" d="M235.98,97.1l4.02-0.3l19.42-51.09h4.25l19.24,51.09l4.09,0.3v3.31h-13.49V97.1l4.77-0.38l-4.51-12.25h-24.57
		l-4.55,12.25l4.77,0.38v3.31h-13.45V97.1z M250.71,80.46h21.6l-10.63-28.93h-0.23L250.71,80.46z"/>
</g>
<g>
	<path class="st1" d="M126.97,134.11l2.68-0.21v-14.45l-2.68-0.21v-1.46h4.64v16.12l2.68,0.21v1.45h-7.31V134.11z M131.6,112.68
		h-1.96v-2.76h1.96V112.68z"/>
	<path class="st1" d="M137.22,134.11l2.68-0.21v-14.45l-2.68-0.21v-1.46h4.42l0.18,3.11c0.57-1.1,1.34-1.94,2.31-2.54
		c0.97-0.6,2.12-0.9,3.44-0.9c1.93,0,3.4,0.59,4.4,1.77c1.01,1.18,1.51,3.02,1.51,5.52v9.17l2.68,0.21v1.45h-7.33v-1.45l2.68-0.21
		v-9.15c0-2.04-0.38-3.48-1.14-4.32c-0.76-0.84-1.84-1.27-3.25-1.27c-1.38,0-2.51,0.36-3.38,1.09c-0.87,0.73-1.5,1.7-1.88,2.9v10.75
		l2.68,0.21v1.45h-7.33V134.11z"/>
	<path class="st1" d="M159.18,126.82c0-2.84,0.6-5.11,1.82-6.81c1.21-1.7,2.89-2.56,5.04-2.56c1.26,0,2.35,0.28,3.28,0.83
		c0.93,0.55,1.69,1.33,2.29,2.34l0.23-2.84h1.66v17.55c0,2.29-0.62,4.1-1.86,5.42c-1.24,1.33-2.96,1.99-5.18,1.99
		c-0.85,0-1.77-0.11-2.74-0.31c-0.97-0.21-1.82-0.49-2.54-0.85l0.53-1.66c0.71,0.34,1.46,0.6,2.24,0.79
		c0.78,0.19,1.61,0.28,2.47,0.28c1.69,0,2.96-0.5,3.81-1.5c0.85-1,1.28-2.38,1.28-4.16v-2.25c-0.6,0.91-1.36,1.61-2.28,2.1
		c-0.92,0.49-2,0.73-3.24,0.73c-2.14,0-3.81-0.79-5.01-2.38c-1.21-1.59-1.81-3.71-1.81-6.36V126.82z M161.15,127.16
		c0,2.14,0.44,3.84,1.31,5.12c0.87,1.28,2.17,1.92,3.9,1.92c1.28,0,2.35-0.29,3.2-0.87c0.85-0.58,1.5-1.38,1.96-2.4v-8.25
		c-0.44-1.04-1.07-1.89-1.89-2.54c-0.82-0.65-1.9-0.98-3.24-0.98c-1.73,0-3.04,0.71-3.92,2.14c-0.88,1.42-1.32,3.27-1.32,5.52
		V127.16z"/>
	<path class="st1" d="M185.81,135.91c-2.24,0-4.09-0.82-5.56-2.46c-1.47-1.64-2.2-3.72-2.2-6.25v-0.9c0-2.54,0.73-4.65,2.19-6.33
		c1.46-1.68,3.23-2.51,5.3-2.51c2.18,0,3.89,0.69,5.14,2.07c1.25,1.38,1.87,3.22,1.87,5.52v1.68h-12.56v0.48
		c0,1.99,0.53,3.67,1.6,5.02c1.07,1.35,2.47,2.03,4.2,2.03c1.22,0,2.26-0.17,3.12-0.51s1.61-0.83,2.22-1.46l0.84,1.35
		c-0.67,0.7-1.51,1.26-2.53,1.67C188.44,135.7,187.22,135.91,185.81,135.91z M185.54,119.12c-1.45,0-2.67,0.56-3.66,1.67
		c-0.99,1.11-1.57,2.51-1.73,4.18l0.03,0.08h10.42v-0.49c0-1.54-0.46-2.84-1.36-3.88C188.33,119.64,187.1,119.12,185.54,119.12z"/>
	<path class="st1" d="M195.72,134.11l2.68-0.21v-14.45l-2.68-0.21v-1.46h4.42l0.18,3.11c0.57-1.1,1.34-1.94,2.31-2.54
		c0.97-0.6,2.12-0.9,3.44-0.9c1.93,0,3.4,0.59,4.4,1.77c1.01,1.18,1.51,3.02,1.51,5.52v9.17l2.68,0.21v1.45h-7.33v-1.45l2.68-0.21
		v-9.15c0-2.04-0.38-3.48-1.14-4.32c-0.76-0.84-1.84-1.27-3.25-1.27c-1.38,0-2.51,0.36-3.38,1.09c-0.87,0.73-1.5,1.7-1.88,2.9v10.75
		l2.68,0.21v1.45h-7.33V134.11z"/>
	<path class="st1" d="M217.63,134.11l2.68-0.21v-14.45l-2.68-0.21v-1.46h4.63v16.12l2.68,0.21v1.45h-7.31V134.11z M222.26,112.68
		h-1.96v-2.76h1.96V112.68z"/>
	<path class="st1" d="M236.09,135.91c-2.24,0-4.09-0.82-5.56-2.46c-1.47-1.64-2.2-3.72-2.2-6.25v-0.9c0-2.54,0.73-4.65,2.19-6.33
		c1.46-1.68,3.23-2.51,5.3-2.51c2.18,0,3.9,0.69,5.15,2.07c1.25,1.38,1.87,3.22,1.87,5.52v1.68h-12.56v0.48
		c0,1.99,0.53,3.67,1.6,5.02c1.07,1.35,2.47,2.03,4.2,2.03c1.22,0,2.26-0.17,3.12-0.51c0.87-0.34,1.61-0.83,2.22-1.46l0.84,1.35
		c-0.67,0.7-1.51,1.26-2.53,1.67C238.72,135.7,237.5,135.91,236.09,135.91z M235.82,119.12c-1.45,0-2.67,0.56-3.66,1.67
		c-0.99,1.11-1.57,2.51-1.73,4.18l0.03,0.08h10.42v-0.49c0-1.54-0.45-2.84-1.36-3.88C238.61,119.64,237.38,119.12,235.82,119.12z"/>
	<path class="st1" d="M250.61,117.78l0.25,2.96v0.21c0.5-1.1,1.19-1.95,2.06-2.57c0.87-0.62,1.9-0.93,3.1-0.93
		c0.25,0,0.49,0.02,0.73,0.06c0.24,0.04,0.43,0.08,0.58,0.12l-0.26,1.84l-1.46-0.1c-1.24,0-2.25,0.35-3.05,1.04
		c-0.79,0.7-1.36,1.65-1.7,2.87v10.62l2.68,0.21v1.45h-7.31v-1.45l2.68-0.21v-14.45l-2.68-0.21v-1.46h2.68H250.61z"/>
	<path class="st1" d="M259.77,119.24v-1.46h4.63v16.12l2.68,0.21v1.45h-7.31v-1.45l2.68-0.21v-14.45L259.77,119.24z M265.23,111.19
		h2.42l0.05,0.1l-4.09,4.27h-1.76L265.23,111.19z"/>
	<path class="st1" d="M282.63,135.56c-0.13-0.6-0.23-1.12-0.28-1.56c-0.05-0.44-0.08-0.88-0.08-1.33c-0.66,0.93-1.53,1.7-2.63,2.32
		c-1.1,0.61-2.33,0.92-3.7,0.92c-1.74,0-3.09-0.45-4.04-1.35c-0.95-0.9-1.43-2.11-1.43-3.65c0-1.64,0.71-2.95,2.12-3.91
		c1.41-0.96,3.33-1.45,5.75-1.45h3.93v-2.35c0-1.27-0.41-2.27-1.22-2.99c-0.82-0.72-1.96-1.08-3.43-1.08c-0.99,0-1.89,0.13-2.7,0.4
		c-0.82,0.27-1.5,0.63-2.05,1.09l-0.16,2.38h-1.63l0.02-3.42c0.82-0.63,1.81-1.15,2.95-1.55c1.14-0.39,2.36-0.59,3.66-0.59
		c1.96,0,3.54,0.5,4.73,1.5s1.79,2.43,1.79,4.29v8.74c0,0.36,0.01,0.71,0.02,1.04c0.02,0.33,0.05,0.66,0.11,0.98l1.78,0.11v1.45
		H282.63z M276.16,134.16c1.42,0,2.68-0.33,3.76-0.99c1.09-0.66,1.87-1.51,2.35-2.55v-3.57h-3.96c-1.79,0-3.21,0.37-4.28,1.11
		c-1.07,0.74-1.6,1.67-1.6,2.8c0,0.95,0.33,1.72,0.99,2.31C274.08,133.87,274.99,134.16,276.16,134.16z"/>
</g>
</svg>
