<?xml version="1.0" encoding="utf-8"?>
<!-- Generator: Adobe Illustrator 24.0.0, SVG Export Plug-In . SVG Version: 6.00 Build 0)  -->
<svg version="1.1" id="Capa_1" xmlns="http://www.w3.org/2000/svg" xmlns:xlink="http://www.w3.org/1999/xlink" x="0px" y="0px"
	 viewBox="0 0 200 200" style="enable-background:new 0 0 200 200;" xml:space="preserve">
<style type="text/css">
	.st0{fill:url(#SVGID_1_);}
	.st1{fill:#F7F7F8;}
	.st2{fill:url(#SVGID_2_);}
	.st3{fill:url(#SVGID_3_);}
</style>
<g>
	<g>
		<g>
			<linearGradient id="SVGID_1_" gradientUnits="userSpaceOnUse" x1="24.9362" y1="99.6557" x2="174.9362" y2="99.6557">
				<stop  offset="0" style="stop-color:#BC0F0F"/>
				<stop  offset="0.6712" style="stop-color:#CE0E0E"/>
				<stop  offset="1" style="stop-color:#D80E0E"/>
			</linearGradient>
			<path class="st0" d="M174.94,98.6c0-19.31-7.21-36.94-19.08-50.34c-13.83-14.49-33.34-23.51-54.95-23.51
				c-41.96,0-75.97,34.01-75.97,75.97c0,19.31,7.21,36.94,19.08,50.34c13.83,14.49,33.34,23.51,54.95,23.51
				C140.92,174.57,174.94,140.55,174.94,98.6z"/>
		</g>
	</g>
</g>
<g>
	<path class="st1" d="M148.01,117.28c0,10.46-8.48,18.93-18.93,18.93H71.18c-10.46,0-18.93-8.48-18.93-18.93V83.51
		c0-10.46,8.48-18.93,18.93-18.93h57.91c10.45,0,18.93,8.48,18.93,18.93V117.28z"/>
	<g>
		<g>
			<g>
				<linearGradient id="SVGID_2_" gradientUnits="userSpaceOnUse" x1="91.6994" y1="100.3982" x2="115.8226" y2="100.3982">
					<stop  offset="0" style="stop-color:#D80E0E"/>
					<stop  offset="1" style="stop-color:#BC0F0F"/>
				</linearGradient>
				<polygon class="st2" points="91.7,86.47 115.82,100.4 91.7,114.33 				"/>
			</g>
		</g>
		<linearGradient id="SVGID_3_" gradientUnits="userSpaceOnUse" x1="91.6994" y1="94.2787" x2="115.8226" y2="94.2787">
			<stop  offset="0" style="stop-color:#D80E0E"/>
			<stop  offset="1" style="stop-color:#BC0F0F"/>
		</linearGradient>
		<polygon class="st3" points="91.7,86.47 112.9,102.09 115.82,100.4 		"/>
	</g>
</g>
</svg>
